<svg width="20" height="20" viewBox="0 0 20 20" fill="none" xmlns="http://www.w3.org/2000/svg">
<path d="M0 10C0 4.47715 4.47715 0 10 0V0C15.5228 0 20 4.47715 20 10V10C20 15.5228 15.5228 20 10 20V20C4.47715 20 0 15.5228 0 10V10Z" fill="#E3FCEC"/>
<g clip-path="url(#clip0_100_811)">
<path d="M17.2813 8.11249C17.2813 8.34582 17.1996 8.54416 17.0363 8.70749L10.7013 15.0425L9.51125 16.2325C9.34792 16.3958 9.14958 16.4775 8.91625 16.4775C8.68292 16.4775 8.48458 16.3958 8.32125 16.2325L7.13125 15.0425L3.96375 11.875C3.80042 11.7117 3.71875 11.5133 3.71875 11.28C3.71875 11.0467 3.80042 10.8483 3.96375 10.685L5.15375 9.49499C5.31708 9.33166 5.51542 9.24999 5.74875 9.24999C5.98208 9.24999 6.18042 9.33166 6.34375 9.49499L8.91625 12.0762L14.6563 6.32749C14.8196 6.16416 15.0179 6.08249 15.2513 6.08249C15.4846 6.08249 15.6829 6.16416 15.8463 6.32749L17.0363 7.51749C17.1996 7.68082 17.2813 7.87916 17.2813 8.11249Z" fill="#34A853"/>
</g>
<defs>
<clipPath id="clip0_100_811">
<rect width="14" height="14" fill="white" transform="translate(3.5 4)"/>
</clipPath>
</defs>
</svg>
