    <svg
      height="32"
      width="32"
      viewBox="0 0 159 159"
      fill="none"
      xmlns="http://www.w3.org/2000/svg"
    >
      <circle cx="79.5" cy="79.5" r="79.5" fill="#2F80ED" />
      <path
        d="M60.528 127H55.792V37.912H91.632C97.6053 37.912 103.109 39.192 108.144 41.752C113.264 44.312 117.317 47.9387 120.304 52.632C123.291 57.3253 124.784 62.744 124.784 68.888C124.784 74.776 123.248 80.1947 120.176 85.144C117.189 90.0933 113.093 93.8907 107.888 96.536C103.365 98.84 97.9467 99.992 91.632 99.992H60.528V127ZM60.528 95.256H91.632C97.0933 95.256 101.573 94.4027 105.072 92.696C109.595 90.5627 113.221 87.3627 115.952 83.096C118.683 78.8293 120.048 74.0933 120.048 68.888C120.048 63.768 118.683 59.0747 115.952 54.808C113.221 50.5413 109.552 47.3413 104.944 45.208C101.445 43.5013 97.008 42.648 91.632 42.648H60.528V95.256Z"
        fill="white"
      />
    </svg>